<mxfile host="app.diagrams.net" modified="2024-01-10T11:34:36.606Z" agent="Mozilla/5.0 (Windows NT 10.0; Win64; x64) AppleWebKit/537.36 (KHTML, like Gecko) Chrome/120.0.0.0 Safari/537.36" etag="h-dQJ37me0yAuVP33flq" version="22.1.18" type="device">
  <diagram name="Página-1" id="eNDKuYyx5jktYODD1dN2">
    <mxGraphModel dx="1050" dy="522" grid="1" gridSize="10" guides="1" tooltips="1" connect="1" arrows="1" fold="1" page="1" pageScale="1" pageWidth="827" pageHeight="1169" math="0" shadow="0">
      <root>
        <mxCell id="0" />
        <mxCell id="1" parent="0" />
        <mxCell id="PVVPCfjbvc8efM1FnzCr-1" value="INSTITUTO" style="rounded=0;whiteSpace=wrap;html=1;" vertex="1" parent="1">
          <mxGeometry x="40" y="120" width="120" height="60" as="geometry" />
        </mxCell>
        <mxCell id="PVVPCfjbvc8efM1FnzCr-2" value="DEPARTAMENTO" style="rounded=0;whiteSpace=wrap;html=1;" vertex="1" parent="1">
          <mxGeometry x="330" y="120" width="120" height="60" as="geometry" />
        </mxCell>
        <mxCell id="PVVPCfjbvc8efM1FnzCr-3" value="formado por" style="rhombus;whiteSpace=wrap;html=1;" vertex="1" parent="1">
          <mxGeometry x="210" y="110" width="80" height="80" as="geometry" />
        </mxCell>
        <mxCell id="PVVPCfjbvc8efM1FnzCr-4" value="" style="endArrow=none;html=1;rounded=0;entryX=0;entryY=0.5;entryDx=0;entryDy=0;exitX=1;exitY=0.5;exitDx=0;exitDy=0;" edge="1" parent="1" source="PVVPCfjbvc8efM1FnzCr-3" target="PVVPCfjbvc8efM1FnzCr-2">
          <mxGeometry width="50" height="50" relative="1" as="geometry">
            <mxPoint x="320" y="300" as="sourcePoint" />
            <mxPoint x="370" y="250" as="targetPoint" />
          </mxGeometry>
        </mxCell>
        <mxCell id="PVVPCfjbvc8efM1FnzCr-5" value="" style="endArrow=none;html=1;rounded=0;entryX=0;entryY=0.5;entryDx=0;entryDy=0;exitX=1;exitY=0.5;exitDx=0;exitDy=0;" edge="1" parent="1" source="PVVPCfjbvc8efM1FnzCr-1" target="PVVPCfjbvc8efM1FnzCr-3">
          <mxGeometry width="50" height="50" relative="1" as="geometry">
            <mxPoint x="300" y="160" as="sourcePoint" />
            <mxPoint x="340" y="160" as="targetPoint" />
          </mxGeometry>
        </mxCell>
        <mxCell id="PVVPCfjbvc8efM1FnzCr-6" value="(1 : N)" style="text;html=1;strokeColor=none;fillColor=none;align=center;verticalAlign=middle;whiteSpace=wrap;rounded=0;" vertex="1" parent="1">
          <mxGeometry x="280" y="120" width="60" height="30" as="geometry" />
        </mxCell>
        <mxCell id="PVVPCfjbvc8efM1FnzCr-7" value="(1 :1)" style="text;html=1;strokeColor=none;fillColor=none;align=center;verticalAlign=middle;whiteSpace=wrap;rounded=0;" vertex="1" parent="1">
          <mxGeometry x="150" y="120" width="60" height="30" as="geometry" />
        </mxCell>
        <mxCell id="PVVPCfjbvc8efM1FnzCr-8" value="(1 : N)" style="text;html=1;strokeColor=none;fillColor=none;align=center;verticalAlign=middle;whiteSpace=wrap;rounded=0;" vertex="1" parent="1">
          <mxGeometry x="220" y="80" width="60" height="30" as="geometry" />
        </mxCell>
        <mxCell id="PVVPCfjbvc8efM1FnzCr-9" value="nombre" style="ellipse;whiteSpace=wrap;html=1;" vertex="1" parent="1">
          <mxGeometry x="320" y="30" width="60" height="30" as="geometry" />
        </mxCell>
        <mxCell id="PVVPCfjbvc8efM1FnzCr-10" value="&lt;u&gt;código&lt;/u&gt;" style="ellipse;whiteSpace=wrap;html=1;" vertex="1" parent="1">
          <mxGeometry x="400" y="30" width="60" height="30" as="geometry" />
        </mxCell>
        <mxCell id="PVVPCfjbvc8efM1FnzCr-11" value="" style="endArrow=none;html=1;rounded=0;entryX=0.5;entryY=1;entryDx=0;entryDy=0;exitX=0.25;exitY=0;exitDx=0;exitDy=0;" edge="1" parent="1" source="PVVPCfjbvc8efM1FnzCr-2" target="PVVPCfjbvc8efM1FnzCr-9">
          <mxGeometry width="50" height="50" relative="1" as="geometry">
            <mxPoint x="320" y="300" as="sourcePoint" />
            <mxPoint x="370" y="250" as="targetPoint" />
          </mxGeometry>
        </mxCell>
        <mxCell id="PVVPCfjbvc8efM1FnzCr-12" value="" style="endArrow=none;html=1;rounded=0;entryX=0.5;entryY=1;entryDx=0;entryDy=0;exitX=0.75;exitY=0;exitDx=0;exitDy=0;" edge="1" parent="1" source="PVVPCfjbvc8efM1FnzCr-2" target="PVVPCfjbvc8efM1FnzCr-10">
          <mxGeometry width="50" height="50" relative="1" as="geometry">
            <mxPoint x="320" y="300" as="sourcePoint" />
            <mxPoint x="370" y="250" as="targetPoint" />
          </mxGeometry>
        </mxCell>
        <mxCell id="PVVPCfjbvc8efM1FnzCr-13" value="imparte" style="rhombus;whiteSpace=wrap;html=1;" vertex="1" parent="1">
          <mxGeometry x="530" y="110" width="80" height="80" as="geometry" />
        </mxCell>
        <mxCell id="PVVPCfjbvc8efM1FnzCr-14" value="CICLO" style="rounded=0;whiteSpace=wrap;html=1;" vertex="1" parent="1">
          <mxGeometry x="690" y="120" width="120" height="60" as="geometry" />
        </mxCell>
        <mxCell id="PVVPCfjbvc8efM1FnzCr-15" value="" style="endArrow=none;html=1;rounded=0;entryX=0;entryY=0.5;entryDx=0;entryDy=0;exitX=1;exitY=0.5;exitDx=0;exitDy=0;" edge="1" parent="1" source="PVVPCfjbvc8efM1FnzCr-13" target="PVVPCfjbvc8efM1FnzCr-14">
          <mxGeometry width="50" height="50" relative="1" as="geometry">
            <mxPoint x="600" y="300" as="sourcePoint" />
            <mxPoint x="650" y="250" as="targetPoint" />
          </mxGeometry>
        </mxCell>
        <mxCell id="PVVPCfjbvc8efM1FnzCr-16" value="" style="endArrow=none;html=1;rounded=0;entryX=1;entryY=0.5;entryDx=0;entryDy=0;exitX=0;exitY=0.5;exitDx=0;exitDy=0;" edge="1" parent="1" source="PVVPCfjbvc8efM1FnzCr-13" target="PVVPCfjbvc8efM1FnzCr-2">
          <mxGeometry width="50" height="50" relative="1" as="geometry">
            <mxPoint x="600" y="300" as="sourcePoint" />
            <mxPoint x="650" y="250" as="targetPoint" />
          </mxGeometry>
        </mxCell>
        <mxCell id="PVVPCfjbvc8efM1FnzCr-17" value="nº de créditos" style="ellipse;whiteSpace=wrap;html=1;" vertex="1" parent="1">
          <mxGeometry x="800" y="30" width="70" height="50" as="geometry" />
        </mxCell>
        <mxCell id="PVVPCfjbvc8efM1FnzCr-18" value="&lt;u&gt;código&lt;/u&gt;" style="ellipse;whiteSpace=wrap;html=1;" vertex="1" parent="1">
          <mxGeometry x="720" y="40" width="60" height="30" as="geometry" />
        </mxCell>
        <mxCell id="PVVPCfjbvc8efM1FnzCr-19" value="nombre" style="ellipse;whiteSpace=wrap;html=1;" vertex="1" parent="1">
          <mxGeometry x="640" y="40" width="60" height="30" as="geometry" />
        </mxCell>
        <mxCell id="PVVPCfjbvc8efM1FnzCr-21" value="" style="endArrow=none;html=1;rounded=0;entryX=0.5;entryY=1;entryDx=0;entryDy=0;exitX=0.75;exitY=0;exitDx=0;exitDy=0;" edge="1" parent="1" source="PVVPCfjbvc8efM1FnzCr-14" target="PVVPCfjbvc8efM1FnzCr-17">
          <mxGeometry width="50" height="50" relative="1" as="geometry">
            <mxPoint x="590" y="180" as="sourcePoint" />
            <mxPoint x="640" y="130" as="targetPoint" />
          </mxGeometry>
        </mxCell>
        <mxCell id="PVVPCfjbvc8efM1FnzCr-22" value="" style="endArrow=none;html=1;rounded=0;entryX=0.5;entryY=1;entryDx=0;entryDy=0;exitX=0.5;exitY=0;exitDx=0;exitDy=0;" edge="1" parent="1" source="PVVPCfjbvc8efM1FnzCr-14" target="PVVPCfjbvc8efM1FnzCr-18">
          <mxGeometry width="50" height="50" relative="1" as="geometry">
            <mxPoint x="590" y="180" as="sourcePoint" />
            <mxPoint x="640" y="130" as="targetPoint" />
          </mxGeometry>
        </mxCell>
        <mxCell id="PVVPCfjbvc8efM1FnzCr-23" value="" style="endArrow=none;html=1;rounded=0;entryX=0.5;entryY=1;entryDx=0;entryDy=0;exitX=0.25;exitY=0;exitDx=0;exitDy=0;" edge="1" parent="1" source="PVVPCfjbvc8efM1FnzCr-14" target="PVVPCfjbvc8efM1FnzCr-19">
          <mxGeometry width="50" height="50" relative="1" as="geometry">
            <mxPoint x="590" y="180" as="sourcePoint" />
            <mxPoint x="640" y="130" as="targetPoint" />
          </mxGeometry>
        </mxCell>
        <mxCell id="PVVPCfjbvc8efM1FnzCr-24" value="(1 : N)" style="text;html=1;strokeColor=none;fillColor=none;align=center;verticalAlign=middle;whiteSpace=wrap;rounded=0;" vertex="1" parent="1">
          <mxGeometry x="640" y="120" width="60" height="30" as="geometry" />
        </mxCell>
        <mxCell id="PVVPCfjbvc8efM1FnzCr-25" value="(1 : N)" style="text;html=1;strokeColor=none;fillColor=none;align=center;verticalAlign=middle;whiteSpace=wrap;rounded=0;" vertex="1" parent="1">
          <mxGeometry x="440" y="120" width="60" height="30" as="geometry" />
        </mxCell>
        <mxCell id="PVVPCfjbvc8efM1FnzCr-26" value="(N : M)" style="text;html=1;strokeColor=none;fillColor=none;align=center;verticalAlign=middle;whiteSpace=wrap;rounded=0;" vertex="1" parent="1">
          <mxGeometry x="540" y="80" width="60" height="30" as="geometry" />
        </mxCell>
        <mxCell id="PVVPCfjbvc8efM1FnzCr-27" value="compuesto por&amp;nbsp;" style="rhombus;whiteSpace=wrap;html=1;" vertex="1" parent="1">
          <mxGeometry x="900" y="110" width="80" height="80" as="geometry" />
        </mxCell>
        <mxCell id="PVVPCfjbvc8efM1FnzCr-28" value="" style="endArrow=none;html=1;rounded=0;entryX=0;entryY=0.5;entryDx=0;entryDy=0;exitX=1;exitY=0.5;exitDx=0;exitDy=0;" edge="1" parent="1" source="PVVPCfjbvc8efM1FnzCr-14" target="PVVPCfjbvc8efM1FnzCr-27">
          <mxGeometry width="50" height="50" relative="1" as="geometry">
            <mxPoint x="810" y="180" as="sourcePoint" />
            <mxPoint x="860" y="130" as="targetPoint" />
          </mxGeometry>
        </mxCell>
        <mxCell id="PVVPCfjbvc8efM1FnzCr-29" value="MÓDULO PROFESIONAL&amp;nbsp;" style="rounded=0;whiteSpace=wrap;html=1;" vertex="1" parent="1">
          <mxGeometry x="1070" y="120" width="120" height="60" as="geometry" />
        </mxCell>
        <mxCell id="PVVPCfjbvc8efM1FnzCr-30" value="" style="endArrow=none;html=1;rounded=0;entryX=0;entryY=0.5;entryDx=0;entryDy=0;exitX=1;exitY=0.5;exitDx=0;exitDy=0;" edge="1" parent="1" source="PVVPCfjbvc8efM1FnzCr-27" target="PVVPCfjbvc8efM1FnzCr-29">
          <mxGeometry width="50" height="50" relative="1" as="geometry">
            <mxPoint x="1020" y="180" as="sourcePoint" />
            <mxPoint x="1070" y="130" as="targetPoint" />
          </mxGeometry>
        </mxCell>
        <mxCell id="PVVPCfjbvc8efM1FnzCr-31" value="(1 : N)" style="text;html=1;strokeColor=none;fillColor=none;align=center;verticalAlign=middle;whiteSpace=wrap;rounded=0;" vertex="1" parent="1">
          <mxGeometry x="1020" y="120" width="60" height="30" as="geometry" />
        </mxCell>
        <mxCell id="PVVPCfjbvc8efM1FnzCr-32" value="(1 : N)" style="text;html=1;strokeColor=none;fillColor=none;align=center;verticalAlign=middle;whiteSpace=wrap;rounded=0;" vertex="1" parent="1">
          <mxGeometry x="805" y="120" width="60" height="30" as="geometry" />
        </mxCell>
        <mxCell id="PVVPCfjbvc8efM1FnzCr-33" value="(N : M)" style="text;html=1;strokeColor=none;fillColor=none;align=center;verticalAlign=middle;whiteSpace=wrap;rounded=0;" vertex="1" parent="1">
          <mxGeometry x="910" y="80" width="60" height="30" as="geometry" />
        </mxCell>
        <mxCell id="PVVPCfjbvc8efM1FnzCr-35" value="&lt;u&gt;nombre&lt;/u&gt;" style="ellipse;whiteSpace=wrap;html=1;" vertex="1" parent="1">
          <mxGeometry x="1060" y="20" width="60" height="30" as="geometry" />
        </mxCell>
        <mxCell id="PVVPCfjbvc8efM1FnzCr-36" value="nº de horas" style="ellipse;whiteSpace=wrap;html=1;" vertex="1" parent="1">
          <mxGeometry x="1140" y="15" width="80" height="40" as="geometry" />
        </mxCell>
        <mxCell id="PVVPCfjbvc8efM1FnzCr-37" value="" style="endArrow=none;html=1;rounded=0;entryX=0.5;entryY=1;entryDx=0;entryDy=0;exitX=0.75;exitY=0;exitDx=0;exitDy=0;" edge="1" parent="1" source="PVVPCfjbvc8efM1FnzCr-29" target="PVVPCfjbvc8efM1FnzCr-36">
          <mxGeometry width="50" height="50" relative="1" as="geometry">
            <mxPoint x="1120" y="170" as="sourcePoint" />
            <mxPoint x="1170" y="120" as="targetPoint" />
          </mxGeometry>
        </mxCell>
        <mxCell id="PVVPCfjbvc8efM1FnzCr-38" value="" style="endArrow=none;html=1;rounded=0;entryX=0.5;entryY=1;entryDx=0;entryDy=0;exitX=0.25;exitY=0;exitDx=0;exitDy=0;" edge="1" parent="1" source="PVVPCfjbvc8efM1FnzCr-29" target="PVVPCfjbvc8efM1FnzCr-35">
          <mxGeometry width="50" height="50" relative="1" as="geometry">
            <mxPoint x="1120" y="170" as="sourcePoint" />
            <mxPoint x="1170" y="120" as="targetPoint" />
          </mxGeometry>
        </mxCell>
        <mxCell id="PVVPCfjbvc8efM1FnzCr-39" value="impartido por" style="rhombus;whiteSpace=wrap;html=1;" vertex="1" parent="1">
          <mxGeometry x="1300" y="110" width="80" height="80" as="geometry" />
        </mxCell>
        <mxCell id="PVVPCfjbvc8efM1FnzCr-40" value="" style="endArrow=none;html=1;rounded=0;entryX=1;entryY=0.5;entryDx=0;entryDy=0;exitX=0;exitY=0.5;exitDx=0;exitDy=0;" edge="1" parent="1" source="PVVPCfjbvc8efM1FnzCr-39" target="PVVPCfjbvc8efM1FnzCr-29">
          <mxGeometry width="50" height="50" relative="1" as="geometry">
            <mxPoint x="1290" y="170" as="sourcePoint" />
            <mxPoint x="1290" y="140" as="targetPoint" />
          </mxGeometry>
        </mxCell>
        <mxCell id="PVVPCfjbvc8efM1FnzCr-41" value="DOCENTE" style="rounded=0;whiteSpace=wrap;html=1;" vertex="1" parent="1">
          <mxGeometry x="1490" y="120" width="120" height="60" as="geometry" />
        </mxCell>
        <mxCell id="PVVPCfjbvc8efM1FnzCr-42" value="" style="endArrow=none;html=1;rounded=0;entryX=0;entryY=0.5;entryDx=0;entryDy=0;exitX=1;exitY=0.5;exitDx=0;exitDy=0;" edge="1" parent="1" source="PVVPCfjbvc8efM1FnzCr-39" target="PVVPCfjbvc8efM1FnzCr-41">
          <mxGeometry width="50" height="50" relative="1" as="geometry">
            <mxPoint x="1330" y="170" as="sourcePoint" />
            <mxPoint x="1380" y="120" as="targetPoint" />
          </mxGeometry>
        </mxCell>
        <mxCell id="PVVPCfjbvc8efM1FnzCr-43" value="(1 : N)" style="text;html=1;strokeColor=none;fillColor=none;align=center;verticalAlign=middle;whiteSpace=wrap;rounded=0;" vertex="1" parent="1">
          <mxGeometry x="1440" y="120" width="60" height="30" as="geometry" />
        </mxCell>
        <mxCell id="PVVPCfjbvc8efM1FnzCr-44" value="(1 : N)" style="text;html=1;strokeColor=none;fillColor=none;align=center;verticalAlign=middle;whiteSpace=wrap;rounded=0;" vertex="1" parent="1">
          <mxGeometry x="1181" y="120" width="60" height="30" as="geometry" />
        </mxCell>
        <mxCell id="PVVPCfjbvc8efM1FnzCr-45" value="(N : M)" style="text;html=1;strokeColor=none;fillColor=none;align=center;verticalAlign=middle;whiteSpace=wrap;rounded=0;" vertex="1" parent="1">
          <mxGeometry x="1310" y="80" width="60" height="30" as="geometry" />
        </mxCell>
        <mxCell id="PVVPCfjbvc8efM1FnzCr-46" value="email" style="ellipse;whiteSpace=wrap;html=1;" vertex="1" parent="1">
          <mxGeometry x="1600" y="65" width="70" height="30" as="geometry" />
        </mxCell>
        <mxCell id="PVVPCfjbvc8efM1FnzCr-47" value="nombre" style="ellipse;whiteSpace=wrap;html=1;" vertex="1" parent="1">
          <mxGeometry x="1530" y="65" width="60" height="30" as="geometry" />
        </mxCell>
        <mxCell id="PVVPCfjbvc8efM1FnzCr-48" value="&lt;u&gt;DNI&lt;/u&gt;" style="ellipse;whiteSpace=wrap;html=1;" vertex="1" parent="1">
          <mxGeometry x="1470" y="70" width="50" height="20" as="geometry" />
        </mxCell>
        <mxCell id="PVVPCfjbvc8efM1FnzCr-49" value="" style="endArrow=none;html=1;rounded=0;entryX=0.5;entryY=1;entryDx=0;entryDy=0;exitX=1;exitY=0;exitDx=0;exitDy=0;" edge="1" parent="1" source="PVVPCfjbvc8efM1FnzCr-41" target="PVVPCfjbvc8efM1FnzCr-46">
          <mxGeometry width="50" height="50" relative="1" as="geometry">
            <mxPoint x="1530" y="170" as="sourcePoint" />
            <mxPoint x="1580" y="120" as="targetPoint" />
          </mxGeometry>
        </mxCell>
        <mxCell id="PVVPCfjbvc8efM1FnzCr-50" value="" style="endArrow=none;html=1;rounded=0;entryX=0.5;entryY=1;entryDx=0;entryDy=0;exitX=0.5;exitY=0;exitDx=0;exitDy=0;" edge="1" parent="1" source="PVVPCfjbvc8efM1FnzCr-41" target="PVVPCfjbvc8efM1FnzCr-47">
          <mxGeometry width="50" height="50" relative="1" as="geometry">
            <mxPoint x="1530" y="170" as="sourcePoint" />
            <mxPoint x="1580" y="120" as="targetPoint" />
          </mxGeometry>
        </mxCell>
        <mxCell id="PVVPCfjbvc8efM1FnzCr-51" value="" style="endArrow=none;html=1;rounded=0;entryX=0.5;entryY=1;entryDx=0;entryDy=0;exitX=0;exitY=0;exitDx=0;exitDy=0;" edge="1" parent="1" source="PVVPCfjbvc8efM1FnzCr-41" target="PVVPCfjbvc8efM1FnzCr-48">
          <mxGeometry width="50" height="50" relative="1" as="geometry">
            <mxPoint x="1530" y="170" as="sourcePoint" />
            <mxPoint x="1580" y="120" as="targetPoint" />
          </mxGeometry>
        </mxCell>
        <mxCell id="PVVPCfjbvc8efM1FnzCr-53" value="&lt;u&gt;nombre&lt;/u&gt;" style="ellipse;whiteSpace=wrap;html=1;" vertex="1" parent="1">
          <mxGeometry x="70" y="35" width="60" height="40" as="geometry" />
        </mxCell>
        <mxCell id="PVVPCfjbvc8efM1FnzCr-54" value="" style="endArrow=none;html=1;rounded=0;entryX=0.5;entryY=1;entryDx=0;entryDy=0;exitX=0.5;exitY=0;exitDx=0;exitDy=0;" edge="1" parent="1" source="PVVPCfjbvc8efM1FnzCr-1" target="PVVPCfjbvc8efM1FnzCr-53">
          <mxGeometry width="50" height="50" relative="1" as="geometry">
            <mxPoint x="520" y="170" as="sourcePoint" />
            <mxPoint x="570" y="120" as="targetPoint" />
          </mxGeometry>
        </mxCell>
        <mxCell id="PVVPCfjbvc8efM1FnzCr-55" value="INSTITUTO" style="shape=table;startSize=30;container=1;collapsible=0;childLayout=tableLayout;strokeColor=default;fontSize=16;" vertex="1" parent="1">
          <mxGeometry x="30" y="250" width="140" height="150" as="geometry" />
        </mxCell>
        <mxCell id="PVVPCfjbvc8efM1FnzCr-56" value="" style="shape=tableRow;horizontal=0;startSize=0;swimlaneHead=0;swimlaneBody=0;strokeColor=inherit;top=0;left=0;bottom=0;right=0;collapsible=0;dropTarget=0;fillColor=none;points=[[0,0.5],[1,0.5]];portConstraint=eastwest;fontSize=16;" vertex="1" parent="PVVPCfjbvc8efM1FnzCr-55">
          <mxGeometry y="30" width="140" height="40" as="geometry" />
        </mxCell>
        <mxCell id="PVVPCfjbvc8efM1FnzCr-57" value="P.K. Nombre" style="shape=partialRectangle;html=1;whiteSpace=wrap;connectable=0;strokeColor=inherit;overflow=hidden;fillColor=none;top=0;left=0;bottom=0;right=0;pointerEvents=1;fontSize=16;" vertex="1" parent="PVVPCfjbvc8efM1FnzCr-56">
          <mxGeometry width="140" height="40" as="geometry">
            <mxRectangle width="140" height="40" as="alternateBounds" />
          </mxGeometry>
        </mxCell>
        <mxCell id="PVVPCfjbvc8efM1FnzCr-60" value="" style="shape=tableRow;horizontal=0;startSize=0;swimlaneHead=0;swimlaneBody=0;strokeColor=inherit;top=0;left=0;bottom=0;right=0;collapsible=0;dropTarget=0;fillColor=none;points=[[0,0.5],[1,0.5]];portConstraint=eastwest;fontSize=16;" vertex="1" parent="PVVPCfjbvc8efM1FnzCr-55">
          <mxGeometry y="70" width="140" height="40" as="geometry" />
        </mxCell>
        <mxCell id="PVVPCfjbvc8efM1FnzCr-61" value="" style="shape=partialRectangle;html=1;whiteSpace=wrap;connectable=0;strokeColor=inherit;overflow=hidden;fillColor=none;top=0;left=0;bottom=0;right=0;pointerEvents=1;fontSize=16;" vertex="1" parent="PVVPCfjbvc8efM1FnzCr-60">
          <mxGeometry width="140" height="40" as="geometry">
            <mxRectangle width="140" height="40" as="alternateBounds" />
          </mxGeometry>
        </mxCell>
        <mxCell id="PVVPCfjbvc8efM1FnzCr-64" value="" style="shape=tableRow;horizontal=0;startSize=0;swimlaneHead=0;swimlaneBody=0;strokeColor=inherit;top=0;left=0;bottom=0;right=0;collapsible=0;dropTarget=0;fillColor=none;points=[[0,0.5],[1,0.5]];portConstraint=eastwest;fontSize=16;" vertex="1" parent="PVVPCfjbvc8efM1FnzCr-55">
          <mxGeometry y="110" width="140" height="40" as="geometry" />
        </mxCell>
        <mxCell id="PVVPCfjbvc8efM1FnzCr-65" value="" style="shape=partialRectangle;html=1;whiteSpace=wrap;connectable=0;strokeColor=inherit;overflow=hidden;fillColor=none;top=0;left=0;bottom=0;right=0;pointerEvents=1;fontSize=16;" vertex="1" parent="PVVPCfjbvc8efM1FnzCr-64">
          <mxGeometry width="140" height="40" as="geometry">
            <mxRectangle width="140" height="40" as="alternateBounds" />
          </mxGeometry>
        </mxCell>
        <mxCell id="PVVPCfjbvc8efM1FnzCr-68" value="DEPARTAMENTO" style="shape=table;startSize=30;container=1;collapsible=0;childLayout=tableLayout;strokeColor=default;fontSize=16;" vertex="1" parent="1">
          <mxGeometry x="220" y="250" width="390" height="150" as="geometry" />
        </mxCell>
        <mxCell id="PVVPCfjbvc8efM1FnzCr-69" value="" style="shape=tableRow;horizontal=0;startSize=0;swimlaneHead=0;swimlaneBody=0;strokeColor=inherit;top=0;left=0;bottom=0;right=0;collapsible=0;dropTarget=0;fillColor=none;points=[[0,0.5],[1,0.5]];portConstraint=eastwest;fontSize=16;" vertex="1" parent="PVVPCfjbvc8efM1FnzCr-68">
          <mxGeometry y="30" width="390" height="40" as="geometry" />
        </mxCell>
        <mxCell id="PVVPCfjbvc8efM1FnzCr-70" value="P.K. código" style="shape=partialRectangle;html=1;whiteSpace=wrap;connectable=0;strokeColor=inherit;overflow=hidden;fillColor=none;top=0;left=0;bottom=0;right=0;pointerEvents=1;fontSize=16;" vertex="1" parent="PVVPCfjbvc8efM1FnzCr-69">
          <mxGeometry width="130" height="40" as="geometry">
            <mxRectangle width="130" height="40" as="alternateBounds" />
          </mxGeometry>
        </mxCell>
        <mxCell id="PVVPCfjbvc8efM1FnzCr-71" value="nombre" style="shape=partialRectangle;html=1;whiteSpace=wrap;connectable=0;strokeColor=inherit;overflow=hidden;fillColor=none;top=0;left=0;bottom=0;right=0;pointerEvents=1;fontSize=16;" vertex="1" parent="PVVPCfjbvc8efM1FnzCr-69">
          <mxGeometry x="130" width="130" height="40" as="geometry">
            <mxRectangle width="130" height="40" as="alternateBounds" />
          </mxGeometry>
        </mxCell>
        <mxCell id="PVVPCfjbvc8efM1FnzCr-72" value="F.K. NombreInstituto" style="shape=partialRectangle;html=1;whiteSpace=wrap;connectable=0;strokeColor=inherit;overflow=hidden;fillColor=none;top=0;left=0;bottom=0;right=0;pointerEvents=1;fontSize=16;" vertex="1" parent="PVVPCfjbvc8efM1FnzCr-69">
          <mxGeometry x="260" width="130" height="40" as="geometry">
            <mxRectangle width="130" height="40" as="alternateBounds" />
          </mxGeometry>
        </mxCell>
        <mxCell id="PVVPCfjbvc8efM1FnzCr-73" value="" style="shape=tableRow;horizontal=0;startSize=0;swimlaneHead=0;swimlaneBody=0;strokeColor=inherit;top=0;left=0;bottom=0;right=0;collapsible=0;dropTarget=0;fillColor=none;points=[[0,0.5],[1,0.5]];portConstraint=eastwest;fontSize=16;" vertex="1" parent="PVVPCfjbvc8efM1FnzCr-68">
          <mxGeometry y="70" width="390" height="40" as="geometry" />
        </mxCell>
        <mxCell id="PVVPCfjbvc8efM1FnzCr-74" value="" style="shape=partialRectangle;html=1;whiteSpace=wrap;connectable=0;strokeColor=inherit;overflow=hidden;fillColor=none;top=0;left=0;bottom=0;right=0;pointerEvents=1;fontSize=16;" vertex="1" parent="PVVPCfjbvc8efM1FnzCr-73">
          <mxGeometry width="130" height="40" as="geometry">
            <mxRectangle width="130" height="40" as="alternateBounds" />
          </mxGeometry>
        </mxCell>
        <mxCell id="PVVPCfjbvc8efM1FnzCr-75" value="" style="shape=partialRectangle;html=1;whiteSpace=wrap;connectable=0;strokeColor=inherit;overflow=hidden;fillColor=none;top=0;left=0;bottom=0;right=0;pointerEvents=1;fontSize=16;" vertex="1" parent="PVVPCfjbvc8efM1FnzCr-73">
          <mxGeometry x="130" width="130" height="40" as="geometry">
            <mxRectangle width="130" height="40" as="alternateBounds" />
          </mxGeometry>
        </mxCell>
        <mxCell id="PVVPCfjbvc8efM1FnzCr-76" value="" style="shape=partialRectangle;html=1;whiteSpace=wrap;connectable=0;strokeColor=inherit;overflow=hidden;fillColor=none;top=0;left=0;bottom=0;right=0;pointerEvents=1;fontSize=16;" vertex="1" parent="PVVPCfjbvc8efM1FnzCr-73">
          <mxGeometry x="260" width="130" height="40" as="geometry">
            <mxRectangle width="130" height="40" as="alternateBounds" />
          </mxGeometry>
        </mxCell>
        <mxCell id="PVVPCfjbvc8efM1FnzCr-77" value="" style="shape=tableRow;horizontal=0;startSize=0;swimlaneHead=0;swimlaneBody=0;strokeColor=inherit;top=0;left=0;bottom=0;right=0;collapsible=0;dropTarget=0;fillColor=none;points=[[0,0.5],[1,0.5]];portConstraint=eastwest;fontSize=16;" vertex="1" parent="PVVPCfjbvc8efM1FnzCr-68">
          <mxGeometry y="110" width="390" height="40" as="geometry" />
        </mxCell>
        <mxCell id="PVVPCfjbvc8efM1FnzCr-78" value="" style="shape=partialRectangle;html=1;whiteSpace=wrap;connectable=0;strokeColor=inherit;overflow=hidden;fillColor=none;top=0;left=0;bottom=0;right=0;pointerEvents=1;fontSize=16;" vertex="1" parent="PVVPCfjbvc8efM1FnzCr-77">
          <mxGeometry width="130" height="40" as="geometry">
            <mxRectangle width="130" height="40" as="alternateBounds" />
          </mxGeometry>
        </mxCell>
        <mxCell id="PVVPCfjbvc8efM1FnzCr-79" value="" style="shape=partialRectangle;html=1;whiteSpace=wrap;connectable=0;strokeColor=inherit;overflow=hidden;fillColor=none;top=0;left=0;bottom=0;right=0;pointerEvents=1;fontSize=16;" vertex="1" parent="PVVPCfjbvc8efM1FnzCr-77">
          <mxGeometry x="130" width="130" height="40" as="geometry">
            <mxRectangle width="130" height="40" as="alternateBounds" />
          </mxGeometry>
        </mxCell>
        <mxCell id="PVVPCfjbvc8efM1FnzCr-80" value="" style="shape=partialRectangle;html=1;whiteSpace=wrap;connectable=0;strokeColor=inherit;overflow=hidden;fillColor=none;top=0;left=0;bottom=0;right=0;pointerEvents=1;fontSize=16;" vertex="1" parent="PVVPCfjbvc8efM1FnzCr-77">
          <mxGeometry x="260" width="130" height="40" as="geometry">
            <mxRectangle width="130" height="40" as="alternateBounds" />
          </mxGeometry>
        </mxCell>
        <mxCell id="PVVPCfjbvc8efM1FnzCr-81" value="CICLO" style="shape=table;startSize=30;container=1;collapsible=0;childLayout=tableLayout;strokeColor=default;fontSize=16;" vertex="1" parent="1">
          <mxGeometry x="670" y="250" width="255" height="150" as="geometry" />
        </mxCell>
        <mxCell id="PVVPCfjbvc8efM1FnzCr-82" value="" style="shape=tableRow;horizontal=0;startSize=0;swimlaneHead=0;swimlaneBody=0;strokeColor=inherit;top=0;left=0;bottom=0;right=0;collapsible=0;dropTarget=0;fillColor=none;points=[[0,0.5],[1,0.5]];portConstraint=eastwest;fontSize=16;" vertex="1" parent="PVVPCfjbvc8efM1FnzCr-81">
          <mxGeometry y="30" width="255" height="40" as="geometry" />
        </mxCell>
        <mxCell id="PVVPCfjbvc8efM1FnzCr-83" value="P.K.Código" style="shape=partialRectangle;html=1;whiteSpace=wrap;connectable=0;strokeColor=inherit;overflow=hidden;fillColor=none;top=0;left=0;bottom=0;right=0;pointerEvents=1;fontSize=16;" vertex="1" parent="PVVPCfjbvc8efM1FnzCr-82">
          <mxGeometry width="85" height="40" as="geometry">
            <mxRectangle width="85" height="40" as="alternateBounds" />
          </mxGeometry>
        </mxCell>
        <mxCell id="PVVPCfjbvc8efM1FnzCr-84" value="nombre" style="shape=partialRectangle;html=1;whiteSpace=wrap;connectable=0;strokeColor=inherit;overflow=hidden;fillColor=none;top=0;left=0;bottom=0;right=0;pointerEvents=1;fontSize=16;" vertex="1" parent="PVVPCfjbvc8efM1FnzCr-82">
          <mxGeometry x="85" width="85" height="40" as="geometry">
            <mxRectangle width="85" height="40" as="alternateBounds" />
          </mxGeometry>
        </mxCell>
        <mxCell id="PVVPCfjbvc8efM1FnzCr-85" value="nº de créditos" style="shape=partialRectangle;html=1;whiteSpace=wrap;connectable=0;strokeColor=inherit;overflow=hidden;fillColor=none;top=0;left=0;bottom=0;right=0;pointerEvents=1;fontSize=16;" vertex="1" parent="PVVPCfjbvc8efM1FnzCr-82">
          <mxGeometry x="170" width="85" height="40" as="geometry">
            <mxRectangle width="85" height="40" as="alternateBounds" />
          </mxGeometry>
        </mxCell>
        <mxCell id="PVVPCfjbvc8efM1FnzCr-86" value="" style="shape=tableRow;horizontal=0;startSize=0;swimlaneHead=0;swimlaneBody=0;strokeColor=inherit;top=0;left=0;bottom=0;right=0;collapsible=0;dropTarget=0;fillColor=none;points=[[0,0.5],[1,0.5]];portConstraint=eastwest;fontSize=16;" vertex="1" parent="PVVPCfjbvc8efM1FnzCr-81">
          <mxGeometry y="70" width="255" height="40" as="geometry" />
        </mxCell>
        <mxCell id="PVVPCfjbvc8efM1FnzCr-87" value="" style="shape=partialRectangle;html=1;whiteSpace=wrap;connectable=0;strokeColor=inherit;overflow=hidden;fillColor=none;top=0;left=0;bottom=0;right=0;pointerEvents=1;fontSize=16;" vertex="1" parent="PVVPCfjbvc8efM1FnzCr-86">
          <mxGeometry width="85" height="40" as="geometry">
            <mxRectangle width="85" height="40" as="alternateBounds" />
          </mxGeometry>
        </mxCell>
        <mxCell id="PVVPCfjbvc8efM1FnzCr-88" value="" style="shape=partialRectangle;html=1;whiteSpace=wrap;connectable=0;strokeColor=inherit;overflow=hidden;fillColor=none;top=0;left=0;bottom=0;right=0;pointerEvents=1;fontSize=16;" vertex="1" parent="PVVPCfjbvc8efM1FnzCr-86">
          <mxGeometry x="85" width="85" height="40" as="geometry">
            <mxRectangle width="85" height="40" as="alternateBounds" />
          </mxGeometry>
        </mxCell>
        <mxCell id="PVVPCfjbvc8efM1FnzCr-89" value="" style="shape=partialRectangle;html=1;whiteSpace=wrap;connectable=0;strokeColor=inherit;overflow=hidden;fillColor=none;top=0;left=0;bottom=0;right=0;pointerEvents=1;fontSize=16;" vertex="1" parent="PVVPCfjbvc8efM1FnzCr-86">
          <mxGeometry x="170" width="85" height="40" as="geometry">
            <mxRectangle width="85" height="40" as="alternateBounds" />
          </mxGeometry>
        </mxCell>
        <mxCell id="PVVPCfjbvc8efM1FnzCr-90" value="" style="shape=tableRow;horizontal=0;startSize=0;swimlaneHead=0;swimlaneBody=0;strokeColor=inherit;top=0;left=0;bottom=0;right=0;collapsible=0;dropTarget=0;fillColor=none;points=[[0,0.5],[1,0.5]];portConstraint=eastwest;fontSize=16;" vertex="1" parent="PVVPCfjbvc8efM1FnzCr-81">
          <mxGeometry y="110" width="255" height="40" as="geometry" />
        </mxCell>
        <mxCell id="PVVPCfjbvc8efM1FnzCr-91" value="" style="shape=partialRectangle;html=1;whiteSpace=wrap;connectable=0;strokeColor=inherit;overflow=hidden;fillColor=none;top=0;left=0;bottom=0;right=0;pointerEvents=1;fontSize=16;" vertex="1" parent="PVVPCfjbvc8efM1FnzCr-90">
          <mxGeometry width="85" height="40" as="geometry">
            <mxRectangle width="85" height="40" as="alternateBounds" />
          </mxGeometry>
        </mxCell>
        <mxCell id="PVVPCfjbvc8efM1FnzCr-92" value="" style="shape=partialRectangle;html=1;whiteSpace=wrap;connectable=0;strokeColor=inherit;overflow=hidden;fillColor=none;top=0;left=0;bottom=0;right=0;pointerEvents=1;fontSize=16;" vertex="1" parent="PVVPCfjbvc8efM1FnzCr-90">
          <mxGeometry x="85" width="85" height="40" as="geometry">
            <mxRectangle width="85" height="40" as="alternateBounds" />
          </mxGeometry>
        </mxCell>
        <mxCell id="PVVPCfjbvc8efM1FnzCr-93" value="" style="shape=partialRectangle;html=1;whiteSpace=wrap;connectable=0;strokeColor=inherit;overflow=hidden;fillColor=none;top=0;left=0;bottom=0;right=0;pointerEvents=1;fontSize=16;" vertex="1" parent="PVVPCfjbvc8efM1FnzCr-90">
          <mxGeometry x="170" width="85" height="40" as="geometry">
            <mxRectangle width="85" height="40" as="alternateBounds" />
          </mxGeometry>
        </mxCell>
        <mxCell id="PVVPCfjbvc8efM1FnzCr-94" value="DEPARTAMENTO_CICLO" style="shape=table;startSize=30;container=1;collapsible=0;childLayout=tableLayout;strokeColor=default;fontSize=16;" vertex="1" parent="1">
          <mxGeometry x="470" y="450" width="340" height="150" as="geometry" />
        </mxCell>
        <mxCell id="PVVPCfjbvc8efM1FnzCr-95" value="" style="shape=tableRow;horizontal=0;startSize=0;swimlaneHead=0;swimlaneBody=0;strokeColor=inherit;top=0;left=0;bottom=0;right=0;collapsible=0;dropTarget=0;fillColor=none;points=[[0,0.5],[1,0.5]];portConstraint=eastwest;fontSize=16;" vertex="1" parent="PVVPCfjbvc8efM1FnzCr-94">
          <mxGeometry y="30" width="340" height="40" as="geometry" />
        </mxCell>
        <mxCell id="PVVPCfjbvc8efM1FnzCr-96" value="F.K. CódigoDepartamento" style="shape=partialRectangle;html=1;whiteSpace=wrap;connectable=0;strokeColor=inherit;overflow=hidden;fillColor=none;top=0;left=0;bottom=0;right=0;pointerEvents=1;fontSize=16;" vertex="1" parent="PVVPCfjbvc8efM1FnzCr-95">
          <mxGeometry width="171" height="40" as="geometry">
            <mxRectangle width="171" height="40" as="alternateBounds" />
          </mxGeometry>
        </mxCell>
        <mxCell id="PVVPCfjbvc8efM1FnzCr-97" value="F.K. CódigoCiclo" style="shape=partialRectangle;html=1;whiteSpace=wrap;connectable=0;strokeColor=inherit;overflow=hidden;fillColor=none;top=0;left=0;bottom=0;right=0;pointerEvents=1;fontSize=16;" vertex="1" parent="PVVPCfjbvc8efM1FnzCr-95">
          <mxGeometry x="171" width="169" height="40" as="geometry">
            <mxRectangle width="169" height="40" as="alternateBounds" />
          </mxGeometry>
        </mxCell>
        <mxCell id="PVVPCfjbvc8efM1FnzCr-99" value="" style="shape=tableRow;horizontal=0;startSize=0;swimlaneHead=0;swimlaneBody=0;strokeColor=inherit;top=0;left=0;bottom=0;right=0;collapsible=0;dropTarget=0;fillColor=none;points=[[0,0.5],[1,0.5]];portConstraint=eastwest;fontSize=16;" vertex="1" parent="PVVPCfjbvc8efM1FnzCr-94">
          <mxGeometry y="70" width="340" height="40" as="geometry" />
        </mxCell>
        <mxCell id="PVVPCfjbvc8efM1FnzCr-100" value="" style="shape=partialRectangle;html=1;whiteSpace=wrap;connectable=0;strokeColor=inherit;overflow=hidden;fillColor=none;top=0;left=0;bottom=0;right=0;pointerEvents=1;fontSize=16;" vertex="1" parent="PVVPCfjbvc8efM1FnzCr-99">
          <mxGeometry width="171" height="40" as="geometry">
            <mxRectangle width="171" height="40" as="alternateBounds" />
          </mxGeometry>
        </mxCell>
        <mxCell id="PVVPCfjbvc8efM1FnzCr-101" value="" style="shape=partialRectangle;html=1;whiteSpace=wrap;connectable=0;strokeColor=inherit;overflow=hidden;fillColor=none;top=0;left=0;bottom=0;right=0;pointerEvents=1;fontSize=16;" vertex="1" parent="PVVPCfjbvc8efM1FnzCr-99">
          <mxGeometry x="171" width="169" height="40" as="geometry">
            <mxRectangle width="169" height="40" as="alternateBounds" />
          </mxGeometry>
        </mxCell>
        <mxCell id="PVVPCfjbvc8efM1FnzCr-103" value="" style="shape=tableRow;horizontal=0;startSize=0;swimlaneHead=0;swimlaneBody=0;strokeColor=inherit;top=0;left=0;bottom=0;right=0;collapsible=0;dropTarget=0;fillColor=none;points=[[0,0.5],[1,0.5]];portConstraint=eastwest;fontSize=16;" vertex="1" parent="PVVPCfjbvc8efM1FnzCr-94">
          <mxGeometry y="110" width="340" height="40" as="geometry" />
        </mxCell>
        <mxCell id="PVVPCfjbvc8efM1FnzCr-104" value="" style="shape=partialRectangle;html=1;whiteSpace=wrap;connectable=0;strokeColor=inherit;overflow=hidden;fillColor=none;top=0;left=0;bottom=0;right=0;pointerEvents=1;fontSize=16;" vertex="1" parent="PVVPCfjbvc8efM1FnzCr-103">
          <mxGeometry width="171" height="40" as="geometry">
            <mxRectangle width="171" height="40" as="alternateBounds" />
          </mxGeometry>
        </mxCell>
        <mxCell id="PVVPCfjbvc8efM1FnzCr-105" value="" style="shape=partialRectangle;html=1;whiteSpace=wrap;connectable=0;strokeColor=inherit;overflow=hidden;fillColor=none;top=0;left=0;bottom=0;right=0;pointerEvents=1;fontSize=16;" vertex="1" parent="PVVPCfjbvc8efM1FnzCr-103">
          <mxGeometry x="171" width="169" height="40" as="geometry">
            <mxRectangle width="169" height="40" as="alternateBounds" />
          </mxGeometry>
        </mxCell>
        <mxCell id="PVVPCfjbvc8efM1FnzCr-107" value="MÓDULO PROFESIONAL " style="shape=table;startSize=30;container=1;collapsible=0;childLayout=tableLayout;strokeColor=default;fontSize=16;" vertex="1" parent="1">
          <mxGeometry x="1001" y="250" width="229" height="150" as="geometry" />
        </mxCell>
        <mxCell id="PVVPCfjbvc8efM1FnzCr-108" value="" style="shape=tableRow;horizontal=0;startSize=0;swimlaneHead=0;swimlaneBody=0;strokeColor=inherit;top=0;left=0;bottom=0;right=0;collapsible=0;dropTarget=0;fillColor=none;points=[[0,0.5],[1,0.5]];portConstraint=eastwest;fontSize=16;" vertex="1" parent="PVVPCfjbvc8efM1FnzCr-107">
          <mxGeometry y="30" width="229" height="40" as="geometry" />
        </mxCell>
        <mxCell id="PVVPCfjbvc8efM1FnzCr-109" value="P.K. Nombre" style="shape=partialRectangle;html=1;whiteSpace=wrap;connectable=0;strokeColor=inherit;overflow=hidden;fillColor=none;top=0;left=0;bottom=0;right=0;pointerEvents=1;fontSize=16;" vertex="1" parent="PVVPCfjbvc8efM1FnzCr-108">
          <mxGeometry width="115" height="40" as="geometry">
            <mxRectangle width="115" height="40" as="alternateBounds" />
          </mxGeometry>
        </mxCell>
        <mxCell id="PVVPCfjbvc8efM1FnzCr-110" value="nº de horas" style="shape=partialRectangle;html=1;whiteSpace=wrap;connectable=0;strokeColor=inherit;overflow=hidden;fillColor=none;top=0;left=0;bottom=0;right=0;pointerEvents=1;fontSize=16;" vertex="1" parent="PVVPCfjbvc8efM1FnzCr-108">
          <mxGeometry x="115" width="114" height="40" as="geometry">
            <mxRectangle width="114" height="40" as="alternateBounds" />
          </mxGeometry>
        </mxCell>
        <mxCell id="PVVPCfjbvc8efM1FnzCr-112" value="" style="shape=tableRow;horizontal=0;startSize=0;swimlaneHead=0;swimlaneBody=0;strokeColor=inherit;top=0;left=0;bottom=0;right=0;collapsible=0;dropTarget=0;fillColor=none;points=[[0,0.5],[1,0.5]];portConstraint=eastwest;fontSize=16;" vertex="1" parent="PVVPCfjbvc8efM1FnzCr-107">
          <mxGeometry y="70" width="229" height="40" as="geometry" />
        </mxCell>
        <mxCell id="PVVPCfjbvc8efM1FnzCr-113" value="" style="shape=partialRectangle;html=1;whiteSpace=wrap;connectable=0;strokeColor=inherit;overflow=hidden;fillColor=none;top=0;left=0;bottom=0;right=0;pointerEvents=1;fontSize=16;" vertex="1" parent="PVVPCfjbvc8efM1FnzCr-112">
          <mxGeometry width="115" height="40" as="geometry">
            <mxRectangle width="115" height="40" as="alternateBounds" />
          </mxGeometry>
        </mxCell>
        <mxCell id="PVVPCfjbvc8efM1FnzCr-114" value="" style="shape=partialRectangle;html=1;whiteSpace=wrap;connectable=0;strokeColor=inherit;overflow=hidden;fillColor=none;top=0;left=0;bottom=0;right=0;pointerEvents=1;fontSize=16;" vertex="1" parent="PVVPCfjbvc8efM1FnzCr-112">
          <mxGeometry x="115" width="114" height="40" as="geometry">
            <mxRectangle width="114" height="40" as="alternateBounds" />
          </mxGeometry>
        </mxCell>
        <mxCell id="PVVPCfjbvc8efM1FnzCr-116" value="" style="shape=tableRow;horizontal=0;startSize=0;swimlaneHead=0;swimlaneBody=0;strokeColor=inherit;top=0;left=0;bottom=0;right=0;collapsible=0;dropTarget=0;fillColor=none;points=[[0,0.5],[1,0.5]];portConstraint=eastwest;fontSize=16;" vertex="1" parent="PVVPCfjbvc8efM1FnzCr-107">
          <mxGeometry y="110" width="229" height="40" as="geometry" />
        </mxCell>
        <mxCell id="PVVPCfjbvc8efM1FnzCr-117" value="" style="shape=partialRectangle;html=1;whiteSpace=wrap;connectable=0;strokeColor=inherit;overflow=hidden;fillColor=none;top=0;left=0;bottom=0;right=0;pointerEvents=1;fontSize=16;" vertex="1" parent="PVVPCfjbvc8efM1FnzCr-116">
          <mxGeometry width="115" height="40" as="geometry">
            <mxRectangle width="115" height="40" as="alternateBounds" />
          </mxGeometry>
        </mxCell>
        <mxCell id="PVVPCfjbvc8efM1FnzCr-118" value="" style="shape=partialRectangle;html=1;whiteSpace=wrap;connectable=0;strokeColor=inherit;overflow=hidden;fillColor=none;top=0;left=0;bottom=0;right=0;pointerEvents=1;fontSize=16;" vertex="1" parent="PVVPCfjbvc8efM1FnzCr-116">
          <mxGeometry x="115" width="114" height="40" as="geometry">
            <mxRectangle width="114" height="40" as="alternateBounds" />
          </mxGeometry>
        </mxCell>
        <mxCell id="PVVPCfjbvc8efM1FnzCr-120" value="CICLO_MÓDULO PROFESIONAL" style="shape=table;startSize=30;container=1;collapsible=0;childLayout=tableLayout;strokeColor=default;fontSize=16;" vertex="1" parent="1">
          <mxGeometry x="865" y="440" width="420" height="150" as="geometry" />
        </mxCell>
        <mxCell id="PVVPCfjbvc8efM1FnzCr-121" value="" style="shape=tableRow;horizontal=0;startSize=0;swimlaneHead=0;swimlaneBody=0;strokeColor=inherit;top=0;left=0;bottom=0;right=0;collapsible=0;dropTarget=0;fillColor=none;points=[[0,0.5],[1,0.5]];portConstraint=eastwest;fontSize=16;" vertex="1" parent="PVVPCfjbvc8efM1FnzCr-120">
          <mxGeometry y="30" width="420" height="40" as="geometry" />
        </mxCell>
        <mxCell id="PVVPCfjbvc8efM1FnzCr-122" value="F.K. CódigoCiclo" style="shape=partialRectangle;html=1;whiteSpace=wrap;connectable=0;strokeColor=inherit;overflow=hidden;fillColor=none;top=0;left=0;bottom=0;right=0;pointerEvents=1;fontSize=16;" vertex="1" parent="PVVPCfjbvc8efM1FnzCr-121">
          <mxGeometry width="211" height="40" as="geometry">
            <mxRectangle width="211" height="40" as="alternateBounds" />
          </mxGeometry>
        </mxCell>
        <mxCell id="PVVPCfjbvc8efM1FnzCr-123" value="F.K. NombreModuloProfesional" style="shape=partialRectangle;html=1;whiteSpace=wrap;connectable=0;strokeColor=inherit;overflow=hidden;fillColor=none;top=0;left=0;bottom=0;right=0;pointerEvents=1;fontSize=16;" vertex="1" parent="PVVPCfjbvc8efM1FnzCr-121">
          <mxGeometry x="211" width="209" height="40" as="geometry">
            <mxRectangle width="209" height="40" as="alternateBounds" />
          </mxGeometry>
        </mxCell>
        <mxCell id="PVVPCfjbvc8efM1FnzCr-125" value="" style="shape=tableRow;horizontal=0;startSize=0;swimlaneHead=0;swimlaneBody=0;strokeColor=inherit;top=0;left=0;bottom=0;right=0;collapsible=0;dropTarget=0;fillColor=none;points=[[0,0.5],[1,0.5]];portConstraint=eastwest;fontSize=16;" vertex="1" parent="PVVPCfjbvc8efM1FnzCr-120">
          <mxGeometry y="70" width="420" height="40" as="geometry" />
        </mxCell>
        <mxCell id="PVVPCfjbvc8efM1FnzCr-126" value="" style="shape=partialRectangle;html=1;whiteSpace=wrap;connectable=0;strokeColor=inherit;overflow=hidden;fillColor=none;top=0;left=0;bottom=0;right=0;pointerEvents=1;fontSize=16;" vertex="1" parent="PVVPCfjbvc8efM1FnzCr-125">
          <mxGeometry width="211" height="40" as="geometry">
            <mxRectangle width="211" height="40" as="alternateBounds" />
          </mxGeometry>
        </mxCell>
        <mxCell id="PVVPCfjbvc8efM1FnzCr-127" value="" style="shape=partialRectangle;html=1;whiteSpace=wrap;connectable=0;strokeColor=inherit;overflow=hidden;fillColor=none;top=0;left=0;bottom=0;right=0;pointerEvents=1;fontSize=16;" vertex="1" parent="PVVPCfjbvc8efM1FnzCr-125">
          <mxGeometry x="211" width="209" height="40" as="geometry">
            <mxRectangle width="209" height="40" as="alternateBounds" />
          </mxGeometry>
        </mxCell>
        <mxCell id="PVVPCfjbvc8efM1FnzCr-129" value="" style="shape=tableRow;horizontal=0;startSize=0;swimlaneHead=0;swimlaneBody=0;strokeColor=inherit;top=0;left=0;bottom=0;right=0;collapsible=0;dropTarget=0;fillColor=none;points=[[0,0.5],[1,0.5]];portConstraint=eastwest;fontSize=16;" vertex="1" parent="PVVPCfjbvc8efM1FnzCr-120">
          <mxGeometry y="110" width="420" height="40" as="geometry" />
        </mxCell>
        <mxCell id="PVVPCfjbvc8efM1FnzCr-130" value="" style="shape=partialRectangle;html=1;whiteSpace=wrap;connectable=0;strokeColor=inherit;overflow=hidden;fillColor=none;top=0;left=0;bottom=0;right=0;pointerEvents=1;fontSize=16;" vertex="1" parent="PVVPCfjbvc8efM1FnzCr-129">
          <mxGeometry width="211" height="40" as="geometry">
            <mxRectangle width="211" height="40" as="alternateBounds" />
          </mxGeometry>
        </mxCell>
        <mxCell id="PVVPCfjbvc8efM1FnzCr-131" value="" style="shape=partialRectangle;html=1;whiteSpace=wrap;connectable=0;strokeColor=inherit;overflow=hidden;fillColor=none;top=0;left=0;bottom=0;right=0;pointerEvents=1;fontSize=16;" vertex="1" parent="PVVPCfjbvc8efM1FnzCr-129">
          <mxGeometry x="211" width="209" height="40" as="geometry">
            <mxRectangle width="209" height="40" as="alternateBounds" />
          </mxGeometry>
        </mxCell>
        <mxCell id="PVVPCfjbvc8efM1FnzCr-133" value="DOCENTE" style="shape=table;startSize=30;container=1;collapsible=0;childLayout=tableLayout;strokeColor=default;fontSize=16;" vertex="1" parent="1">
          <mxGeometry x="1370" y="240" width="260" height="150" as="geometry" />
        </mxCell>
        <mxCell id="PVVPCfjbvc8efM1FnzCr-134" value="" style="shape=tableRow;horizontal=0;startSize=0;swimlaneHead=0;swimlaneBody=0;strokeColor=inherit;top=0;left=0;bottom=0;right=0;collapsible=0;dropTarget=0;fillColor=none;points=[[0,0.5],[1,0.5]];portConstraint=eastwest;fontSize=16;" vertex="1" parent="PVVPCfjbvc8efM1FnzCr-133">
          <mxGeometry y="30" width="260" height="40" as="geometry" />
        </mxCell>
        <mxCell id="PVVPCfjbvc8efM1FnzCr-135" value="P.K.DNI" style="shape=partialRectangle;html=1;whiteSpace=wrap;connectable=0;strokeColor=inherit;overflow=hidden;fillColor=none;top=0;left=0;bottom=0;right=0;pointerEvents=1;fontSize=16;" vertex="1" parent="PVVPCfjbvc8efM1FnzCr-134">
          <mxGeometry width="87" height="40" as="geometry">
            <mxRectangle width="87" height="40" as="alternateBounds" />
          </mxGeometry>
        </mxCell>
        <mxCell id="PVVPCfjbvc8efM1FnzCr-136" value="nombre" style="shape=partialRectangle;html=1;whiteSpace=wrap;connectable=0;strokeColor=inherit;overflow=hidden;fillColor=none;top=0;left=0;bottom=0;right=0;pointerEvents=1;fontSize=16;" vertex="1" parent="PVVPCfjbvc8efM1FnzCr-134">
          <mxGeometry x="87" width="86" height="40" as="geometry">
            <mxRectangle width="86" height="40" as="alternateBounds" />
          </mxGeometry>
        </mxCell>
        <mxCell id="PVVPCfjbvc8efM1FnzCr-137" value="email" style="shape=partialRectangle;html=1;whiteSpace=wrap;connectable=0;strokeColor=inherit;overflow=hidden;fillColor=none;top=0;left=0;bottom=0;right=0;pointerEvents=1;fontSize=16;" vertex="1" parent="PVVPCfjbvc8efM1FnzCr-134">
          <mxGeometry x="173" width="87" height="40" as="geometry">
            <mxRectangle width="87" height="40" as="alternateBounds" />
          </mxGeometry>
        </mxCell>
        <mxCell id="PVVPCfjbvc8efM1FnzCr-138" value="" style="shape=tableRow;horizontal=0;startSize=0;swimlaneHead=0;swimlaneBody=0;strokeColor=inherit;top=0;left=0;bottom=0;right=0;collapsible=0;dropTarget=0;fillColor=none;points=[[0,0.5],[1,0.5]];portConstraint=eastwest;fontSize=16;" vertex="1" parent="PVVPCfjbvc8efM1FnzCr-133">
          <mxGeometry y="70" width="260" height="40" as="geometry" />
        </mxCell>
        <mxCell id="PVVPCfjbvc8efM1FnzCr-139" value="" style="shape=partialRectangle;html=1;whiteSpace=wrap;connectable=0;strokeColor=inherit;overflow=hidden;fillColor=none;top=0;left=0;bottom=0;right=0;pointerEvents=1;fontSize=16;" vertex="1" parent="PVVPCfjbvc8efM1FnzCr-138">
          <mxGeometry width="87" height="40" as="geometry">
            <mxRectangle width="87" height="40" as="alternateBounds" />
          </mxGeometry>
        </mxCell>
        <mxCell id="PVVPCfjbvc8efM1FnzCr-140" value="" style="shape=partialRectangle;html=1;whiteSpace=wrap;connectable=0;strokeColor=inherit;overflow=hidden;fillColor=none;top=0;left=0;bottom=0;right=0;pointerEvents=1;fontSize=16;" vertex="1" parent="PVVPCfjbvc8efM1FnzCr-138">
          <mxGeometry x="87" width="86" height="40" as="geometry">
            <mxRectangle width="86" height="40" as="alternateBounds" />
          </mxGeometry>
        </mxCell>
        <mxCell id="PVVPCfjbvc8efM1FnzCr-141" value="" style="shape=partialRectangle;html=1;whiteSpace=wrap;connectable=0;strokeColor=inherit;overflow=hidden;fillColor=none;top=0;left=0;bottom=0;right=0;pointerEvents=1;fontSize=16;" vertex="1" parent="PVVPCfjbvc8efM1FnzCr-138">
          <mxGeometry x="173" width="87" height="40" as="geometry">
            <mxRectangle width="87" height="40" as="alternateBounds" />
          </mxGeometry>
        </mxCell>
        <mxCell id="PVVPCfjbvc8efM1FnzCr-142" value="" style="shape=tableRow;horizontal=0;startSize=0;swimlaneHead=0;swimlaneBody=0;strokeColor=inherit;top=0;left=0;bottom=0;right=0;collapsible=0;dropTarget=0;fillColor=none;points=[[0,0.5],[1,0.5]];portConstraint=eastwest;fontSize=16;" vertex="1" parent="PVVPCfjbvc8efM1FnzCr-133">
          <mxGeometry y="110" width="260" height="40" as="geometry" />
        </mxCell>
        <mxCell id="PVVPCfjbvc8efM1FnzCr-143" value="" style="shape=partialRectangle;html=1;whiteSpace=wrap;connectable=0;strokeColor=inherit;overflow=hidden;fillColor=none;top=0;left=0;bottom=0;right=0;pointerEvents=1;fontSize=16;" vertex="1" parent="PVVPCfjbvc8efM1FnzCr-142">
          <mxGeometry width="87" height="40" as="geometry">
            <mxRectangle width="87" height="40" as="alternateBounds" />
          </mxGeometry>
        </mxCell>
        <mxCell id="PVVPCfjbvc8efM1FnzCr-144" value="" style="shape=partialRectangle;html=1;whiteSpace=wrap;connectable=0;strokeColor=inherit;overflow=hidden;fillColor=none;top=0;left=0;bottom=0;right=0;pointerEvents=1;fontSize=16;" vertex="1" parent="PVVPCfjbvc8efM1FnzCr-142">
          <mxGeometry x="87" width="86" height="40" as="geometry">
            <mxRectangle width="86" height="40" as="alternateBounds" />
          </mxGeometry>
        </mxCell>
        <mxCell id="PVVPCfjbvc8efM1FnzCr-145" value="" style="shape=partialRectangle;html=1;whiteSpace=wrap;connectable=0;strokeColor=inherit;overflow=hidden;fillColor=none;top=0;left=0;bottom=0;right=0;pointerEvents=1;fontSize=16;" vertex="1" parent="PVVPCfjbvc8efM1FnzCr-142">
          <mxGeometry x="173" width="87" height="40" as="geometry">
            <mxRectangle width="87" height="40" as="alternateBounds" />
          </mxGeometry>
        </mxCell>
        <mxCell id="PVVPCfjbvc8efM1FnzCr-146" value="MÓDULO PROFESIONAL_DOCENTE" style="shape=table;startSize=30;container=1;collapsible=0;childLayout=tableLayout;strokeColor=default;fontSize=16;" vertex="1" parent="1">
          <mxGeometry x="1360" y="435" width="420" height="150" as="geometry" />
        </mxCell>
        <mxCell id="PVVPCfjbvc8efM1FnzCr-147" value="" style="shape=tableRow;horizontal=0;startSize=0;swimlaneHead=0;swimlaneBody=0;strokeColor=inherit;top=0;left=0;bottom=0;right=0;collapsible=0;dropTarget=0;fillColor=none;points=[[0,0.5],[1,0.5]];portConstraint=eastwest;fontSize=16;" vertex="1" parent="PVVPCfjbvc8efM1FnzCr-146">
          <mxGeometry y="30" width="420" height="40" as="geometry" />
        </mxCell>
        <mxCell id="PVVPCfjbvc8efM1FnzCr-148" value="F.K. NombreModuloProfesional" style="shape=partialRectangle;html=1;whiteSpace=wrap;connectable=0;strokeColor=inherit;overflow=hidden;fillColor=none;top=0;left=0;bottom=0;right=0;pointerEvents=1;fontSize=16;" vertex="1" parent="PVVPCfjbvc8efM1FnzCr-147">
          <mxGeometry width="211" height="40" as="geometry">
            <mxRectangle width="211" height="40" as="alternateBounds" />
          </mxGeometry>
        </mxCell>
        <mxCell id="PVVPCfjbvc8efM1FnzCr-149" value="F.K. DNI" style="shape=partialRectangle;html=1;whiteSpace=wrap;connectable=0;strokeColor=inherit;overflow=hidden;fillColor=none;top=0;left=0;bottom=0;right=0;pointerEvents=1;fontSize=16;" vertex="1" parent="PVVPCfjbvc8efM1FnzCr-147">
          <mxGeometry x="211" width="209" height="40" as="geometry">
            <mxRectangle width="209" height="40" as="alternateBounds" />
          </mxGeometry>
        </mxCell>
        <mxCell id="PVVPCfjbvc8efM1FnzCr-151" value="" style="shape=tableRow;horizontal=0;startSize=0;swimlaneHead=0;swimlaneBody=0;strokeColor=inherit;top=0;left=0;bottom=0;right=0;collapsible=0;dropTarget=0;fillColor=none;points=[[0,0.5],[1,0.5]];portConstraint=eastwest;fontSize=16;" vertex="1" parent="PVVPCfjbvc8efM1FnzCr-146">
          <mxGeometry y="70" width="420" height="40" as="geometry" />
        </mxCell>
        <mxCell id="PVVPCfjbvc8efM1FnzCr-152" value="" style="shape=partialRectangle;html=1;whiteSpace=wrap;connectable=0;strokeColor=inherit;overflow=hidden;fillColor=none;top=0;left=0;bottom=0;right=0;pointerEvents=1;fontSize=16;" vertex="1" parent="PVVPCfjbvc8efM1FnzCr-151">
          <mxGeometry width="211" height="40" as="geometry">
            <mxRectangle width="211" height="40" as="alternateBounds" />
          </mxGeometry>
        </mxCell>
        <mxCell id="PVVPCfjbvc8efM1FnzCr-153" value="" style="shape=partialRectangle;html=1;whiteSpace=wrap;connectable=0;strokeColor=inherit;overflow=hidden;fillColor=none;top=0;left=0;bottom=0;right=0;pointerEvents=1;fontSize=16;" vertex="1" parent="PVVPCfjbvc8efM1FnzCr-151">
          <mxGeometry x="211" width="209" height="40" as="geometry">
            <mxRectangle width="209" height="40" as="alternateBounds" />
          </mxGeometry>
        </mxCell>
        <mxCell id="PVVPCfjbvc8efM1FnzCr-155" value="" style="shape=tableRow;horizontal=0;startSize=0;swimlaneHead=0;swimlaneBody=0;strokeColor=inherit;top=0;left=0;bottom=0;right=0;collapsible=0;dropTarget=0;fillColor=none;points=[[0,0.5],[1,0.5]];portConstraint=eastwest;fontSize=16;" vertex="1" parent="PVVPCfjbvc8efM1FnzCr-146">
          <mxGeometry y="110" width="420" height="40" as="geometry" />
        </mxCell>
        <mxCell id="PVVPCfjbvc8efM1FnzCr-156" value="" style="shape=partialRectangle;html=1;whiteSpace=wrap;connectable=0;strokeColor=inherit;overflow=hidden;fillColor=none;top=0;left=0;bottom=0;right=0;pointerEvents=1;fontSize=16;" vertex="1" parent="PVVPCfjbvc8efM1FnzCr-155">
          <mxGeometry width="211" height="40" as="geometry">
            <mxRectangle width="211" height="40" as="alternateBounds" />
          </mxGeometry>
        </mxCell>
        <mxCell id="PVVPCfjbvc8efM1FnzCr-157" value="" style="shape=partialRectangle;html=1;whiteSpace=wrap;connectable=0;strokeColor=inherit;overflow=hidden;fillColor=none;top=0;left=0;bottom=0;right=0;pointerEvents=1;fontSize=16;" vertex="1" parent="PVVPCfjbvc8efM1FnzCr-155">
          <mxGeometry x="211" width="209" height="40" as="geometry">
            <mxRectangle width="209" height="40" as="alternateBounds" />
          </mxGeometry>
        </mxCell>
      </root>
    </mxGraphModel>
  </diagram>
</mxfile>
